<svg xmlns="http://www.w3.org/2000/svg" xmlns:xlink="http://www.w3.org/1999/xlink" version="1.0" x="0" y="0" width="2400" height="588.5107922816803" viewBox="81.5711003112793 103.31610305786133 176.8577993774414 43.36780151367188" preserveAspectRatio="xMidYMid meet" color-interpolation-filters="sRGB"><g><defs><linearGradient id="92" x1="0%" y1="0%" x2="100%" y2="0%"><stop offset="0%" stop-color="#fa71cd"></stop> <stop offset="100%" stop-color="#9b59b6"></stop></linearGradient><linearGradient id="93" x1="0%" y1="0%" x2="100%" y2="0%"><stop offset="0%" stop-color="#f9d423"></stop> <stop offset="100%" stop-color="#f83600"></stop></linearGradient><linearGradient id="94" x1="0%" y1="0%" x2="100%" y2="0%"><stop offset="0%" stop-color="#0064d2"></stop> <stop offset="100%" stop-color="#1cb0f6"></stop></linearGradient><linearGradient id="95" x1="0%" y1="0%" x2="100%" y2="0%"><stop offset="0%" stop-color="#f00978"></stop> <stop offset="100%" stop-color="#3f51b1"></stop></linearGradient><linearGradient id="96" x1="0%" y1="0%" x2="100%" y2="0%"><stop offset="0%" stop-color="#7873f5"></stop> <stop offset="100%" stop-color="#ec77ab"></stop></linearGradient><linearGradient id="97" x1="0%" y1="0%" x2="100%" y2="0%"><stop offset="0%" stop-color="#f9d423"></stop> <stop offset="100%" stop-color="#e14fad"></stop></linearGradient><linearGradient id="98" x1="0%" y1="0%" x2="100%" y2="0%"><stop offset="0%" stop-color="#009efd"></stop> <stop offset="100%" stop-color="#2af598"></stop></linearGradient><linearGradient id="99" x1="0%" y1="0%" x2="100%" y2="0%"><stop offset="0%" stop-color="#ffcc00"></stop> <stop offset="100%" stop-color="#00b140"></stop></linearGradient><linearGradient id="100" x1="0%" y1="0%" x2="100%" y2="0%"><stop offset="0%" stop-color="#d51007"></stop> <stop offset="100%" stop-color="#ff8177"></stop></linearGradient><linearGradient id="102" x1="0%" y1="0%" x2="100%" y2="0%"><stop offset="0%" stop-color="#a2b6df"></stop> <stop offset="100%" stop-color="#0c3483"></stop></linearGradient><linearGradient id="103" x1="0%" y1="0%" x2="100%" y2="0%"><stop offset="0%" stop-color="#7ac5d8"></stop> <stop offset="100%" stop-color="#eea2a2"></stop></linearGradient><linearGradient id="104" x1="0%" y1="0%" x2="100%" y2="0%"><stop offset="0%" stop-color="#00ecbc"></stop> <stop offset="100%" stop-color="#007adf"></stop></linearGradient><linearGradient id="105" x1="0%" y1="0%" x2="100%" y2="0%"><stop offset="0%" stop-color="#b88746"></stop> <stop offset="100%" stop-color="#fdf5a6"></stop></linearGradient></defs><g fill="#ff7acc" class="basesvg" transform="translate(83.30500030517578,105.04999923706055)"><g fill-rule="" class="tp-name"><g transform="scale(1.4000000000000004)"><g stroke="#ff7acc" stroke-width="2.5" stroke-linecap="round" stroke-linejoin="round" paint-order="stroke" fill-opacity="0"><path d="M1.14 0L27.74 0 27.66-27.63 14.36-17.56 1.06-27.63 1.14 0ZM27.74 0C56.96 0 31.96 0 61.33 0L44.54-28.46 27.74 0ZM61.26-26.6L61.26 0 75.09 0 75.09-26.6 61.26-26.6ZM95.8-13.26L100.97-13.26 100.97-26.6 76.99-26.6 76.99-13.26 82.5-13.26 82.5 0.04 95.8 0.04 95.8-13.26ZM102.87-26.64L102.87-0.04 124.91-0.04 124.91-9.01 119.4-9.01 119.4-10.15 124.91-10.15 124.91-16.53 119.4-16.53 119.4-17.67 124.91-17.67 124.91-26.64 102.87-26.64Z" transform="translate(-1.059999942779541, 28.459999084472656)"></path></g></g></g> </g><mask id="hqZggZRAUpy4_eNOyLrzd"><path d="M1.14 0L27.74 0 27.66-27.63 14.36-17.56 1.06-27.63 1.14 0ZM27.74 0C56.96 0 31.96 0 61.33 0L44.54-28.46 27.74 0ZM61.26-26.6L61.26 0 75.09 0 75.09-26.6 61.26-26.6ZM95.8-13.26L100.97-13.26 100.97-26.6 76.99-26.6 76.99-13.26 82.5-13.26 82.5 0.04 95.8 0.04 95.8-13.26ZM102.87-26.64L102.87-0.04 124.91-0.04 124.91-9.01 119.4-9.01 119.4-10.15 124.91-10.15 124.91-16.53 119.4-16.53 119.4-17.67 124.91-17.67 124.91-26.64 102.87-26.64Z" stroke-width="1" stroke-linejoin="round" stroke="#000" fill="#fff"></path></mask><defs v-gra="od"></defs></g></svg>